<?xml version="1.0" encoding="UTF-8"?>
<svg xmlns="http://www.w3.org/2000/svg" xmlns:xlink="http://www.w3.org/1999/xlink" width="624" height="84" viewBox="0 0 624 84">
  <defs>
    <clipPath id="clip-Logo_-_Grey">
      <rect width="624" height="84"></rect>
    </clipPath>
  </defs>
  <g id="Logo_-_Grey" data-name="Logo - Grey" clip-path="url(#clip-Logo_-_Grey)">
    <path id="Pfad_11" data-name="Pfad 11" d="M640.293,102.373l-12.859-4.355c-9.53-3.438-13.319-6.648-13.319-13.41,0-6.648,3.789-13.868,12.285-13.868a8.1,8.1,0,0,1,6.2,2.751l19.978,24.527h2.3V69.823h-2.3l-7,2.636a56.567,56.567,0,0,0-19.863-3.782c-15.845,0-28.934,7.679-28.934,23.61,0,10.888,5.97,19.255,19.4,23.84l13.433,4.47c8.5,2.865,12.285,6.877,12.285,13.41,0,7.565-5.282,12.608-13.663,12.608a12.467,12.467,0,0,1-8.611-3.438l-19.519-23.84H597.7v28.195h2.411l7.119-3.209a51.069,51.069,0,0,0,21.241,4.355c16.763,0,30.886-7.45,30.886-23.954,0-10.43-5.626-17.65-19.06-22.35m-72.1,32.779c-2.526-3.553-4.822-6.877-6.545-9.742-5.626-7.794-10.1-10.888-14.811-12.608a32.183,32.183,0,0,0-7.463-1.834h4.019c17.452,0,28.589-7.679,28.589-20.287,0-12.722-11.826-20.4-28.474-20.4H498.27v2.292l8.267,5.96v60.172l-8.267,6.074v2.292h36.282V144.78l-8.267-6.074V72.574h7.233c11.137,0,17.567,7.679,17.567,17.765,0,9.971-6.085,16.39-14.926,18.338l-5.167.458v1.49l19.978,36.447h29.508V144.78Zm-93.231-13.868-13.893,23.5H437.761V109.594H454.18L464.4,122.2h2.411V94.809H464.4L454.18,107.3H437.761V72.574h22.16l13.893,23.5h2.411V70.282H409.746v2.292l8.267,5.96v60.172l-8.267,6.074v2.292h67.627V121.284Zm-81.634-51H374.268v2.292l9.185,5.731-15.5,45.272h-.689L349.812,78.763l5.741-6.189V70.282h-34.56v2.292l7.119,7.794,5.741,13.983-9.989,29.226H323.4L306.067,78.763l5.167-6.189V70.282h-34.1v2.292l6.315,6.991L311,147.072h7.119l17.337-48.94,20.437,48.94h6.545L386.209,78.3l7.119-5.731Zm-136.857,51-13.893,23.5H219.27V109.594h16.419L245.907,122.2h2.411V94.809h-2.411L235.689,107.3H219.27V72.574h22.16l13.893,23.5h2.411V70.282H191.255v2.292l8.267,5.96v60.172l-8.267,6.074v2.292h67.627V121.284ZM172.2,72.574V70.282h-38v2.292l9.185,5.96v60.172l-9.185,6.074v2.292h38V144.78l-9.185-6.074V78.534ZM76.783,144.78H67.368V109.25h8.726c11.252,0,17.567,6.533,17.567,17.077,0,11.232-7.463,18.453-16.878,18.453M75.75,72.574c8.5,0,15.156,6.3,15.156,16.5s-6.889,17.88-16.189,17.88H67.368V72.574Zm12.515,35.415v-.344c11.6-.917,21.93-6.877,21.93-18.567,0-11.805-11.137-18.8-27.786-18.8H39.353v2.292l8.267,5.96v60.172l-8.267,6.074v2.292H85.165c18.715,0,29.393-8.138,29.393-19.943,0-11.117-9.415-18.338-26.293-19.14" transform="translate(-37.353 -66.677)" fill="#a1a7ac"></path>
  </g>
</svg>
